<svg xmlns="http://www.w3.org/2000/svg" width="800" height="500" viewBox="0 0 800 500">
  <defs>
    <linearGradient id="frontGrad" x1="0%" y1="0%" x2="100%" y2="0%">
      <stop offset="0%" style="stop-color:#61DAFB;stop-opacity:0.9" />
      <stop offset="100%" style="stop-color:#4FC3F7;stop-opacity:0.9" />
    </linearGradient>
    <linearGradient id="backGrad" x1="0%" y1="0%" x2="100%" y2="0%">
      <stop offset="0%" style="stop-color:#68A063;stop-opacity:0.9" />
      <stop offset="100%" style="stop-color:#8BC34A;stop-opacity:0.9" />
    </linearGradient>
    <linearGradient id="dbGrad" x1="0%" y1="0%" x2="100%" y2="0%">
      <stop offset="0%" style="stop-color:#4479A1;stop-opacity:0.9" />
      <stop offset="100%" style="stop-color:#64B5F6;stop-opacity:0.9" />
    </linearGradient>
    <filter id="shadow" x="-20%" y="-20%" width="140%" height="140%">
      <feDropShadow dx="3" dy="3" stdDeviation="4" flood-opacity="0.3"/>
    </filter>
  </defs>

  <text x="400" y="30" font-family="Microsoft YaHei, sans-serif" font-size="22" font-weight="bold" text-anchor="middle" fill="#333">MES制造执行系统技术栈</text>

  <rect x="50" y="60" width="350" height="380" rx="15" ry="15" fill="url(#frontGrad)" filter="url(#shadow)"/>
  <text x="225" y="95" font-family="Microsoft YaHei, sans-serif" font-size="18" font-weight="bold" text-anchor="middle" fill="white">前端技术 (Frontend)</text>

  <rect x="70" y="120" width="310" height="45" rx="8" ry="8" fill="white" opacity="0.95"/>
  <text x="225" y="146" font-family="Microsoft YaHei, sans-serif" font-size="16" font-weight="bold" text-anchor="middle" fill="#333">React 19</text>
  <text x="225" y="162" font-family="Microsoft YaHei, sans-serif" font-size="10" text-anchor="middle" fill="#666">UI框架</text>

  <rect x="70" y="175" width="310" height="45" rx="8" ry="8" fill="white" opacity="0.95"/>
  <text x="225" y="201" font-family="Microsoft YaHei, sans-serif" font-size="16" font-weight="bold" text-anchor="middle" fill="#333">TypeScript</text>
  <text x="225" y="217" font-family="Microsoft YaHei, sans-serif" font-size="10" text-anchor="middle" fill="#666">类型安全</text>

  <rect x="70" y="230" width="310" height="45" rx="8" ry="8" fill="white" opacity="0.95"/>
  <text x="225" y="256" font-family="Microsoft YaHei, sans-serif" font-size="16" font-weight="bold" text-anchor="middle" fill="#333">Vite 8</text>
  <text x="225" y="272" font-family="Microsoft YaHei, sans-serif" font-size="10" text-anchor="middle" fill="#666">构建工具</text>

  <rect x="70" y="285" width="150" height="45" rx="8" ry="8" fill="white" opacity="0.95"/>
  <text x="145" y="311" font-family="Microsoft YaHei, sans-serif" font-size="14" font-weight="bold" text-anchor="middle" fill="#333">Ant Design 6</text>
  <text x="145" y="327" font-family="Microsoft YaHei, sans-serif" font-size="10" text-anchor="middle" fill="#666">UI组件库</text>

  <rect x="230" y="285" width="150" height="45" rx="8" ry="8" fill="white" opacity="0.95"/>
  <text x="305" y="311" font-family="Microsoft YaHei, sans-serif" font-size="14" font-weight="bold" text-anchor="middle" fill="#333">Zustand</text>
  <text x="305" y="327" font-family="Microsoft YaHei, sans-serif" font-size="10" text-anchor="middle" fill="#666">状态管理</text>

  <rect x="70" y="340" width="150" height="45" rx="8" ry="8" fill="white" opacity="0.95"/>
  <text x="145" y="366" font-family="Microsoft YaHei, sans-serif" font-size="14" font-weight="bold" text-anchor="middle" fill="#333">TanStack Query</text>
  <text x="145" y="382" font-family="Microsoft YaHei, sans-serif" font-size="10" text-anchor="middle" fill="#666">数据缓存</text>

  <rect x="230" y="340" width="150" height="45" rx="8" ry="8" fill="white" opacity="0.95"/>
  <text x="305" y="366" font-family="Microsoft YaHei, sans-serif" font-size="14" font-weight="bold" text-anchor="middle" fill="#333">Three.js</text>
  <text x="305" y="382" font-family="Microsoft YaHei, sans-serif" font-size="10" text-anchor="middle" fill="#666">3D渲染</text>

  <rect x="70" y="395" width="310" height="45" rx="8" ry="8" fill="white" opacity="0.95"/>
  <text x="225" y="421" font-family="Microsoft YaHei, sans-serif" font-size="16" font-weight="bold" text-anchor="middle" fill="#333">Axios</text>
  <text x="225" y="437" font-family="Microsoft YaHei, sans-serif" font-size="10" text-anchor="middle" fill="#666">HTTP客户端</text>

  <rect x="400" y="60" width="350" height="380" rx="15" ry="15" fill="url(#backGrad)" filter="url(#shadow)"/>
  <text x="575" y="95" font-family="Microsoft YaHei, sans-serif" font-size="18" font-weight="bold" text-anchor="middle" fill="white">后端技术 (Backend)</text>

  <rect x="420" y="120" width="310" height="45" rx="8" ry="8" fill="white" opacity="0.95"/>
  <text x="575" y="146" font-family="Microsoft YaHei, sans-serif" font-size="16" font-weight="bold" text-anchor="middle" fill="#333">Java 8</text>
  <text x="575" y="162" font-family="Microsoft YaHei, sans-serif" font-size="10" text-anchor="middle" fill="#666">编程语言</text>

  <rect x="420" y="175" width="310" height="45" rx="8" ry="8" fill="white" opacity="0.95"/>
  <text x="575" y="201" font-family="Microsoft YaHei, sans-serif" font-size="16" font-weight="bold" text-anchor="middle" fill="#333">Spring Boot 2.1.7</text>
  <text x="575" y="217" font-family="Microsoft YaHei, sans-serif" font-size="10" text-anchor="middle" fill="#666">应用框架</text>

  <rect x="420" y="230" width="310" height="45" rx="8" ry="8" fill="white" opacity="0.95"/>
  <text x="575" y="256" font-family="Microsoft YaHei, sans-serif" font-size="16" font-weight="bold" text-anchor="middle" fill="#333">MyBatis-Plus 3.1.2</text>
  <text x="575" y="272" font-family="Microsoft YaHei, sans-serif" font-size="10" text-anchor="middle" fill="#666">ORM框架</text>

  <rect x="420" y="285" width="150" height="45" rx="8" ry="8" fill="white" opacity="0.95"/>
  <text x="495" y="311" font-family="Microsoft YaHei, sans-serif" font-size="14" font-weight="bold" text-anchor="middle" fill="#333">Apache Shiro 1.4.0</text>
  <text x="495" y="327" font-family="Microsoft YaHei, sans-serif" font-size="10" text-anchor="middle" fill="#666">安全框架</text>

  <rect x="580" y="285" width="150" height="45" rx="8" ry="8" fill="white" opacity="0.95"/>
  <text x="655" y="311" font-family="Microsoft YaHei, sans-serif" font-size="14" font-weight="bold" text-anchor="middle" fill="#333">Redis</text>
  <text x="655" y="327" font-family="Microsoft YaHei, sans-serif" font-size="10" text-anchor="middle" fill="#666">缓存</text>

  <rect x="420" y="340" width="150" height="45" rx="8" ry="8" fill="white" opacity="0.95"/>
  <text x="495" y="366" font-family="Microsoft YaHei, sans-serif" font-size="14" font-weight="bold" text-anchor="middle" fill="#333">Ehcache</text>
  <text x="495" y="382" font-family="Microsoft YaHei, sans-serif" font-size="10" text-anchor="middle" fill="#666">本地缓存</text>

  <rect x="580" y="340" width="150" height="45" rx="8" ry="8" fill="white" opacity="0.95"/>
  <text x="655" y="366" font-family="Microsoft YaHei, sans-serif" font-size="14" font-weight="bold" text-anchor="middle" fill="#333">Druid</text>
  <text x="655" y="382" font-family="Microsoft YaHei, sans-serif" font-size="10" text-anchor="middle" fill="#666">连接池</text>

  <rect x="420" y="395" width="310" height="45" rx="8" ry="8" fill="white" opacity="0.95"/>
  <text x="575" y="421" font-family="Microsoft YaHei, sans-serif" font-size="16" font-weight="bold" text-anchor="middle" fill="#333">Maven</text>
  <text x="575" y="437" font-family="Microsoft YaHei, sans-serif" font-size="10" text-anchor="middle" fill="#666">构建工具</text>

  <rect x="50" y="455" width="700" height="35" rx="8" ry="8" fill="url(#dbGrad)" filter="url(#shadow)"/>
  <text x="400" y="478" font-family="Microsoft YaHei, sans-serif" font-size="14" font-weight="bold" text-anchor="middle" fill="white">数据库: MySQL 8 | Docker容器化部署 | 前端构建: pnpm + vite</text>
</svg>